<svg width="23" height="17" viewBox="0 0 23 17" fill="none" xmlns="http://www.w3.org/2000/svg">
<path d="M23 1.20695C23 0.540393 22.4747 0 21.8267 0H1.17328C0.525316 0 0 0.540393 0 1.20695V15.793C0 16.4596 0.525316 17 1.17328 17H21.8267C22.4747 17 23 16.4596 23 15.793V1.20695ZM20.6534 3.66511C20.6534 4.02036 20.5019 4.35766 20.239 4.58795L15.7399 8.52872L20.2433 12.4733C20.5036 12.7012 20.6534 13.0351 20.6534 13.3866C20.6534 14.0491 20.1314 14.5862 19.4874 14.5862H19.4774C19.1924 14.5862 18.9167 14.4818 18.6997 14.2918L13.93 10.1139L12.2606 11.5761C12.0414 11.7681 11.7706 11.8641 11.4999 11.8641C11.2292 11.8641 10.9585 11.7681 10.7392 11.5761L9.06983 10.1139L4.30789 14.285C4.08598 14.4794 3.804 14.5861 3.51256 14.5861C2.86859 14.5861 2.34648 14.0491 2.34648 13.3865C2.34648 13.035 2.49642 12.7012 2.75658 12.4732L7.26009 8.52865L2.82322 4.64242C2.52083 4.37753 2.34656 3.98946 2.34656 3.58087C2.34656 2.93635 2.85443 2.41382 3.48104 2.41382C3.75058 2.41382 4.01128 2.51255 4.21653 2.69231L11.1292 8.74702C11.3429 8.93426 11.6572 8.93426 11.8711 8.74702L18.7836 2.69231C18.9889 2.51255 19.2496 2.41382 19.519 2.41382C20.1456 2.41382 20.6534 2.93627 20.6534 3.58079V3.66511Z" fill="#F6F6F6"/>
</svg>
